#!OML:ASF H:\Terrain\Patient Classification 1\Walking\steve\steve.ASF
:FULLY-SPECIFIED
:DEGREES
108
root 7.79127 15.9401 -10.9689 5.66622 -8.76402 1.60989
lowerback -0.0523246 3.60341 -2.24803
upperback -2.77527 4.74647 -1.19541
thorax -2.90345 2.40781 -0.0952732
lowerneck -11.232 1.23114 -2.70042
upperneck 10.7829 1.9982 0.858772
head 5.04686 0.925425 0.856676
rclavicle -2.32795e-014 -1.98785e-014
rhumerus -33.7592 -1.84356 -86.9015
rradius 51.1167
rwrist -20.707
rhand -16.2595 -51.1297
rfingers 7.12502
rthumb 9.94985 -80.8745
lclavicle -2.32795e-014 -1.98785e-014
lhumerus -53.3138 35.2211 51.0211
lradius 10.7007
lwrist -31.1341
lhand -18.142 -9.06571
lfingers 7.12502
lthumb 8.13326 20.7578
rfemur -22.3179 4.82785 20.3239
rtibia 75.0463
rfoot -1.63646 -3.12522
rtoes -14.09
lfemur -25.5899 1.44766 -25.6797
ltibia 36.1721
lfoot -16.6834 0.638958
ltoes -0.228111
109
root 7.78971 15.9508 -10.7511 5.66317 -8.32937 1.56331
lowerback -0.172227 3.37565 -2.10342
upperback -2.68648 4.45018 -1.18615
thorax -2.72837 2.25545 -0.144995
lowerneck -11.3818 1.32107 -2.45462
upperneck 10.9686 2.09529 0.769127
head 5.13136 0.975292 0.799034
rclavicle 2.82725e-014 -8.34896e-015
rhumerus -34.6543 -2.1928 -87.1733
rradius 49.4833
rwrist -20.6411
rhand -18.3501 -47.2719
rfingers 7.12502
rthumb 7.93246 -77.1031
lclavicle 2.82725e-014 -8.34896e-015
lhumerus -49.8182 34.2401 54.8527
lradius 10.757
lwrist -29.0016
lhand -19.702 -10.1022
lfingers 7.12502
lthumb 6.62752 19.7741
rfemur -23.9804 4.48156 20.6161
rtibia 75.1494
rfoot -3.33575 -2.96575
rtoes -15.9127
lfemur -24.5085 1.32914 -25.754
ltibia 35.7748
lfoot -17.0928 0.146021
ltoes 1.18073
110
root 7.7818 15.9661 -10.5344 5.59321 -7.88527 1.51597
lowerback -0.0630238 3.17309 -2.10661
upperback -2.73308 4.17955 -1.02201
thorax -2.84618 2.12332 0.0226379
lowerneck -11.2433 1.40115 -2.64486
upperneck 11.1084 2.22374 0.834143
head 5.14666 1.0334 0.859598
rclavicle -1.27199e-014 -1.33186e-014
rhumerus -35.8872 -2.63366 -87.0472
rradius 47.9272
rwrist -20.1662
rhand -19.6565 -43.2321
rfingers 7.12502
rthumb 6.67146 -73.107
lclavicle -1.27199e-014 -1.33186e-014
lhumerus -45.7388 30.5243 61.0581
lradius 11.6241
lwrist -23.4501
lhand -21.059 -10.6205
lfingers 7.12502
lthumb 5.31737 19.2928
rfemur -25.4803 4.11723 20.9072
rtibia 75.0687
rfoot -4.67227 -2.75197
rtoes -15.5043
lfemur -23.3251 1.06738 -25.7961
ltibia 35.3349
lfoot -17.5755 0.0198669
ltoes 1.15939
111
root 7.77646 15.9944 -10.3143 5.43046 -7.41088 1.51905
lowerback 0.218018 3.05873 -2.13548
upperback -2.86593 4.02067 -0.84591
thorax -3.15356 2.04939 0.200924
lowerneck -11.1674 1.41633 -2.82212
upperneck 11.4734 2.27518 0.827489
head 5.24492 1.04699 0.89252
rclavicle 4.20243e-014 -5.31749e-015
rhumerus -37.3281 -3.24823 -86.6742
rradius 46.4744
rwrist -19.8501
rhand -19.3009 -42.6496
rfingers 7.12502
rthumb 7.0147 -72.5134
lclavicle 4.20243e-014 -5.31749e-015
lhumerus -42.5826 26.0174 66.756
lradius 13.1043
lwrist -17.6537
lhand -21.3978 -10.212
lfingers 7.12502
lthumb 4.99029 19.7092
rfemur -26.8227 3.75094 21.0722
rtibia 74.8136
rfoot -5.81622 -2.42118
rtoes -13.1409
lfemur -21.9398 0.719761 -25.8843
ltibia 34.7797
lfoot -17.9111 -0.054631
ltoes 0.349919
112
root 7.77545 16.0208 -10.0882 5.28323 -7.06651 1.68772
lowerback 0.227066 2.98018 -2.31453
upperback -2.81518 3.9152 -0.759698
thorax -3.12242 2.00206 0.393064
lowerneck -11.5798 1.42279 -2.68247
upperneck 11.9681 2.30454 0.625206
head 5.47261 1.04767 0.81735
rclavicle 6.05078e-014 -1.18277e-014
rhumerus -38.3577 -3.64728 -86.4503
rradius 44.6513
rwrist -19.6057
rhand -18.9257 -43.0846
rfingers 7.12502
rthumb 7.37686 -72.936
lclavicle 6.05078e-014 -1.18277e-014
lhumerus -40.085 23.2964 70.3998
lradius 14.4655
lwrist -14.1695
lhand -21.7775 -10.4035
lfingers 7.12502
lthumb 4.62364 19.5261
rfemur -28.2657 3.61953 20.9587
rtibia 74.4729
rfoot -7.31022 -1.81082
rtoes -9.79392
lfemur -20.5092 0.283033 -26.1486
ltibia 34.108
lfoot -18.1744 -0.0583574
ltoes 0.327301
113
root 7.7765 16.0277 -9.85195 4.94972 -6.81103 2.08672
lowerback 0.146194 2.89533 -2.71911
upperback -2.524 3.80298 -0.735165
thorax -2.80222 1.95134 0.661075
lowerneck -12.1155 1.3897 -2.79377
upperneck 12.3172 2.28172 0.744982
head 5.67004 1.03612 0.879636
rclavicle -1.39088e-014 4.13099e-016
rhumerus -39.1429 -4.07805 -86.2603
rradius 42.6803
rwrist -18.8097
rhand -19.065 -40.9036
rfingers 7.12502
rthumb 7.24242 -70.7597
lclavicle -1.39088e-014 4.13099e-016
lhumerus -37.5222 20.6958 73.637
lradius 15.7426
lwrist -10.8451
lhand -22.2932 -10.1133
lfingers 7.12502
lthumb 4.12564 19.8265
rfemur -29.4539 3.52229 20.5866
rtibia 73.9264
rfoot -8.96734 -1.24599
rtoes -7.9636
lfemur -18.8786 -0.149202 -26.7015
ltibia 33.432
lfoot -18.7994 0.11144
ltoes -0.39645
114
root 7.77094 16.0333 -9.63267 4.95473 -6.14478 2.36223
lowerback 0.14588 2.62383 -3.17004
upperback -2.51871 3.4356 -0.634586
thorax -2.81839 1.77971 1.02574
lowerneck -12.1719 1.38732 -2.71012
upperneck 12.4341 2.2869 0.601788
head 5.71919 1.0304 0.823
rclavicle -2.17877e-014 -3.77691e-015
rhumerus -40.2838 -4.29149 -86.1054
rradius 41.2516
rwrist -18.3028
rhand -18.7794 -40.2734
rfingers 7.12502
rthumb 7.5181 -70.1198
lclavicle -2.17877e-014 -3.77691e-015
lhumerus -35.3674 17.7349 76.5114
lradius 16.9939
lwrist -7.12316
lhand -21.9975 -8.5969
lfingers 7.12502
lthumb 4.41121 21.3372
rfemur -30.9067 2.99962 20.4293
rtibia 73.0988
rfoot -10.3411 -0.942179
rtoes -8.8968
lfemur -17.8059 -0.392685 -27.0793
ltibia 32.9294
lfoot -19.2043 -0.236564
ltoes -0.937575
115
root 7.76757 16.03 -9.411 4.91344 -5.84033 2.34947
lowerback 0.1404 2.50648 -3.20242
upperback -2.53531 3.28024 -0.553485
thorax -2.83246 1.70437 1.13154
lowerneck -11.9589 1.39266 -2.38928
upperneck 12.4039 2.28079 0.250677
head 5.6821 1.01662 0.657576
rclavicle -1.88143e-014 -9.93923e-017
rhumerus -41.5177 -4.5143 -86.0566
rradius 40.1183
rwrist -17.8406
rhand -18.4853 -42.2004
rfingers 7.12502
rthumb 7.80191 -72.0364
lclavicle -1.88143e-014 -9.93923e-017
lhumerus -33.4301 14.5168 79.0009
lradius 18.4619
lwrist -3.07002
lhand -22.2207 -8.3321
lfingers 7.12502
lthumb 4.19563 21.6063
rfemur -32.195 2.85033 20.5909
rtibia 71.9871
rfoot -11.3897 -0.806054
rtoes -10.7691
lfemur -16.7255 -0.0852107 -27.1943
ltibia 32.5977
lfoot -19.6596 -0.693694
ltoes -1.00855
116
root 7.76214 16.0104 -9.19208 4.99953 -5.49611 2.28543
lowerback -0.0443919 2.44932 -3.02492
upperback -2.53809 3.21345 -0.568811
thorax -2.71695 1.66563 1.02819
lowerneck -11.6084 1.32432 -2.46702
upperneck 12.2652 2.15833 0.476792
head 5.57721 0.972286 0.726923
rclavicle 9.07292e-015 2.5842e-015
rhumerus -42.599 -5.09466 -85.9425
rradius 38.7069
rwrist -17.2701
rhand -18.631 -44.145
rfingers 7.12502
rthumb 7.66131 -73.9863
lclavicle 9.07292e-015 2.5842e-015
lhumerus -31.8227 11.38 81.0136
lradius 20.4346
lwrist 0.693651
lhand -23.2009 -10.0698
lfingers 7.12502
lthumb 3.24904 19.8852
rfemur -33.5321 2.76129 20.8623
rtibia 70.6825
rfoot -12.0323 -1.39095
rtoes -11.6533
lfemur -15.7746 0.445353 -27.2694
ltibia 32.3528
lfoot -20.0935 -1.12584
ltoes -2.30758
117
root 7.75624 15.9999 -8.96997 5.14718 -5.01976 2.35076
lowerback -0.161041 2.32605 -3.05179
upperback -2.61272 3.05149 -0.568809
thorax -2.72302 1.58634 1.05092
lowerneck -11.3425 1.28959 -2.68841
upperneck 12.2426 2.08787 0.856776
head 5.51925 0.956117 0.873844
rclavicle 2.18417e-014 -4.07509e-015
rhumerus -43.664 -5.74288 -85.6161
rradius 36.8948
rwrist -17.0679
rhand -18.8508 -45.0498
rfingers 7.12502
rthumb 7.4492 -74.8987
lclavicle 2.18417e-014 -4.07509e-015
lhumerus -30.4881 8.77152 82.534
lradius 22.294
lwrist 3.84726
lhand -23.5986 -11.0123
lfingers 7.12502
lthumb 2.86505 18.9482
rfemur -34.873 2.54263 20.9742
rtibia 69.1457
rfoot -12.6115 -1.69398
rtoes -12.8508
lfemur -14.8735 0.707347 -27.445
ltibia 32.0859
lfoot -20.6179 -1.26943
ltoes -4.48051
118
root 7.75207 15.9977 -8.74226 5.1813 -4.59126 2.62774
lowerback -0.0917198 2.226 -3.39559
upperback -2.69857 2.91031 -0.497426
thorax -2.86699 1.52759 1.31375
lowerneck -11.4916 1.2197 -2.88808
upperneck 12.543 2.01777 0.9731
head 5.63667 0.918292 0.941239
rclavicle -2.57605e-015 1.83876e-014
rhumerus -45.0152 -5.96822 -85.2085
rradius 35.4558
rwrist -17.0132
rhand -18.2542 -44.982
rfingers 7.12502
rthumb 8.02498 -74.8096
lclavicle -2.57605e-015 1.83876e-014
lhumerus -29.1411 6.44037 83.9525
lradius 23.8023
lwrist 6.71519
lhand -23.6046 -10.8575
lfingers 7.12502
lthumb 2.85919 19.1031
rfemur -36.0083 2.31019 20.7867
rtibia 67.38
rfoot -13.7019 -0.434442
rtoes -13.5971
lfemur -13.8342 0.790982 -27.83
ltibia 31.7146
lfoot -21.2052 -1.27976
ltoes -6.8863
119
root 7.74644 15.9959 -8.51161 5.16691 -4.22088 2.95054
lowerback -0.096755 2.15472 -3.82023
upperback -2.67904 2.8109 -0.444235
thorax -2.86404 1.48856 1.60829
lowerneck -11.6697 1.09938 -3.02031
upperneck 12.591 1.87919 1.00737
head 5.68323 0.8466 0.964401
rclavicle -1.11758e-014 -1.46107e-014
rhumerus -46.0608 -6.27332 -84.8072
rradius 33.8024
rwrist -16.3482
rhand -17.7366 -44.0334
rfingers 7.12502
rthumb 8.52453 -73.8413
lclavicle -1.11758e-014 -1.46107e-014
lhumerus -27.6145 4.7462 84.9741
lradius 25.1673
lwrist 8.7537
lhand -23.5544 -11.4571
lfingers 7.12502
lthumb 2.90768 18.5029
rfemur -36.9794 2.13489 20.5297
rtibia 65.3547
rfoot -15.2907 -1.93488
rtoes -19.6041
lfemur -12.6173 0.938939 -28.2336
ltibia 31.1397
lfoot -21.5634 -1.69756
ltoes -7.62794
120
root 7.73815 16.0001 -8.28382 5.13761 -3.80594 3.10195
lowerback -0.064498 2.02974 -4.09424
upperback -2.61169 2.64189 -0.373878
thorax -2.81983 1.40997 1.83873
lowerneck -11.4213 1.06215 -2.9973
upperneck 12.1221 1.81986 0.965117
head 5.49609 0.820238 0.93669
rclavicle -7.79065e-015 -7.55382e-015
rhumerus -46.8481 -6.89377 -84.3295
rradius 31.8587
rwrist -15.1965
rhand -17.9283 -42.6358
rfingers 7.12502
rthumb 8.3395 -72.4511
lclavicle -7.79065e-015 -7.55382e-015
lhumerus -26.09 3.37746 85.6855
lradius 26.6747
lwrist 10.5795
lhand -23.4951 -11.8953
lfingers 7.12502
lthumb 2.965 18.0639
rfemur -37.7868 2.01535 20.4445
rtibia 63.0372
rfoot -16.2894 -2.61758
rtoes -18.1246
lfemur -11.2929 1.24658 -28.3911
ltibia 30.3815
lfoot -21.5392 -2.41488
ltoes -7.18792
